<?xml version="1.0" encoding="utf-8"?>
<!-- Generator: Adobe Illustrator 23.0.2, SVG Export Plug-In . SVG Version: 6.00 Build 0)  -->
<svg version="1.1" id="Layer_1" xmlns="http://www.w3.org/2000/svg" xmlns:xlink="http://www.w3.org/1999/xlink" x="0px" y="0px"
	 viewBox="0 0 1024 1024" style="enable-background:new 0 0 1024 1024;" xml:space="preserve">
<style type="text/css">
	.st0{fill:url(#XMLID_2_);}
	.st1{fill:url(#XMLID_3_);}
	.st2{fill:url(#XMLID_4_);}
	.st3{fill:url(#XMLID_5_);}
	.st4{fill:url(#XMLID_6_);}
	.st5{fill:url(#XMLID_7_);}
</style>
<g id="XMLID_282_">
	<g id="XMLID_865_">
		<g id="XMLID_163_">
			
				<linearGradient id="XMLID_2_" gradientUnits="userSpaceOnUse" x1="112.4959" y1="1685.4767" x2="472.9746" y2="1537.1947" gradientTransform="matrix(0.8381 0.5455 0.5455 -0.8381 -444.8154 1831.1381)">
				<stop  offset="0" style="stop-color:#3C4D60"/>
				<stop  offset="0.3602" style="stop-color:#007876"/>
				<stop  offset="1" style="stop-color:#002D40"/>
			</linearGradient>
			<path id="XMLID_164_" class="st0" d="M776.5,581.5c-24.3-94-126.1-142.8-185.2-156.2c-5.5-1.3-11.9-2.8-19.8-4.9l-69.9,107.4
				c13.2,78.2,42.4,162.1,117.6,218.6c69.5,52.2,241.4,110.8,241.4,110.8S800.8,675.2,776.5,581.5z"/>
		</g>
	</g>
	<g id="XMLID_863_">
		<g id="XMLID_143_">
			
				<linearGradient id="XMLID_3_" gradientUnits="userSpaceOnUse" x1="23.613" y1="2004.13" x2="192.588" y2="1576.5726" gradientTransform="matrix(0.8381 0.5455 0.5455 -0.8381 -444.8154 1831.1381)">
				<stop  offset="0" style="stop-color:#3C4D60"/>
				<stop  offset="0.3602" style="stop-color:#007876"/>
				<stop  offset="1" style="stop-color:#002D40"/>
			</linearGradient>
			<path id="XMLID_144_" class="st1" d="M590.5,242.9c-94,24.3-151.5,130.4-164.9,189.4c-1.3,5.5-2.8,11.9-4.9,19.8L528.1,522
				c80.3-16.4,162.1-42.4,218.6-117.6C798.9,334.9,857.5,163,857.5,163S684.5,218.6,590.5,242.9z"/>
		</g>
	</g>
	<g id="XMLID_849_">
		<g id="XMLID_140_">
			
				<linearGradient id="XMLID_4_" gradientUnits="userSpaceOnUse" x1="113.1797" y1="1606.658" x2="-468.9137" y2="1683.5867" gradientTransform="matrix(0.8381 0.5455 0.5455 -0.8381 -444.8154 1831.1381)">
				<stop  offset="0" style="stop-color:#3C4D60"/>
				<stop  offset="0.3602" style="stop-color:#007876"/>
				<stop  offset="1" style="stop-color:#002D40"/>
			</linearGradient>
			<path id="XMLID_141_" class="st2" d="M238.1,439.6c53.1,84.6,135.7,145.5,194.7,159c5.5,1.3,12.1,3,20,5.1l69.9-107.4
				c-16.4-80.3-42.6-162.1-118-218.8c-69.5-52.2-241.6-111-241.6-111S186.5,357.3,238.1,439.6z"/>
		</g>
	</g>
	<g id="XMLID_838_">
		<g id="XMLID_137_">
			
				<linearGradient id="XMLID_5_" gradientUnits="userSpaceOnUse" x1="-118.734" y1="1514.8987" x2="439.3951" y2="1169.2684" gradientTransform="matrix(0.8381 0.5455 0.5455 -0.8381 -444.8154 1831.1381)">
				<stop  offset="0" style="stop-color:#3C4D60"/>
				<stop  offset="0.3602" style="stop-color:#007876"/>
				<stop  offset="1" style="stop-color:#002D40"/>
			</linearGradient>
			<path id="XMLID_138_" class="st3" d="M444.8,773.7c98.4-55.4,102.1-157,153.8-182.6c5.1-2.6,3-12.1,4.9-20l-107.4-69.9
				C415.8,517.6,334,543.8,277.3,619c-52.2,69.5-110.8,241.6-110.8,241.6S360.4,821.2,444.8,773.7z"/>
		</g>
	</g>
	
		<linearGradient id="XMLID_6_" gradientUnits="userSpaceOnUse" x1="502.718" y1="1778.7375" x2="-401.9023" y2="1453.8973" gradientTransform="matrix(0.8381 0.5455 0.5455 -0.8381 -444.8154 1831.1381)">
		<stop  offset="2.150538e-02" style="stop-color:#008377"/>
		<stop  offset="0.2312" style="stop-color:#00A898"/>
		<stop  offset="0.5161" style="stop-color:#00AD9A"/>
		<stop  offset="0.7079" style="stop-color:#00E6C9"/>
		<stop  offset="0.8441" style="stop-color:#00C3AE"/>
		<stop  offset="1" style="stop-color:#00635B"/>
	</linearGradient>
	<path id="XMLID_825_" class="st4" d="M791.7,555.7C753.1,466.6,650,438.5,590.9,425.1c-5.1-1.1-11.1-2.6-18.8-4.9l0,0
		c-148.9-38.8-270.6-80.3-317.3-114c-48.4-35.2-74.1-81.4-91.4-139.8c13.6,59.2,4.5,186.4,68.8,301.5
		c47.5,84.8,142.1,117.4,201.1,130.8c5.1,1.1,11.5,2.8,19.2,5.1l0,0c148.9,38.8,270.4,80.1,316.8,113.8
		c48.4,35.2,73.9,81.4,91.2,139.6C847.1,798,840.2,667.3,791.7,555.7z"/>
	<circle id="XMLID_818_" cx="512.1" cy="511.8" r="20.9"/>
	
		<linearGradient id="XMLID_7_" gradientUnits="userSpaceOnUse" x1="248.5584" y1="1270.7745" x2="-84.1906" y2="1984.3568" gradientTransform="matrix(0.8381 0.5455 0.5455 -0.8381 -444.8154 1831.1381)">
		<stop  offset="0" style="stop-color:#008175"/>
		<stop  offset="0.371" style="stop-color:#00E6C9"/>
		<stop  offset="0.8925" style="stop-color:#00D8E0"/>
		<stop  offset="1" style="stop-color:#00A295"/>
	</linearGradient>
	<path id="XMLID_284_" class="st5" d="M598.8,590.8c1.1-5.1,1.7-9.8,4.7-18.8l0,0c39-149.4,80.3-270.8,114-317.5
		c35.2-48.4,81.4-74.1,139.8-91.4c-59.2,13.6-205,14.7-301.5,68.8c-84.8,47.5-117.6,142.3-131,201.1c-1.1,5.1-2.1,10.4-5.1,19.4l0,0
		c-39,149.4-79.9,270.2-113.6,316.8c-35.2,48.4-81.2,73.9-139.6,91.2c59.2-13.6,203.7-16,301.7-69
		C553.4,745.1,585.2,649.9,598.8,590.8z"/>
</g>
</svg>
