<?xml version="1.0" encoding="utf-8"?>
<!-- Generator: Adobe Illustrator 23.0.2, SVG Export Plug-In . SVG Version: 6.00 Build 0)  -->
<svg version="1.1" xmlns="http://www.w3.org/2000/svg" xmlns:xlink="http://www.w3.org/1999/xlink" x="0px" y="0px"
	 viewBox="0 0 1912 596.7" style="enable-background:new 0 0 1912 596.7;" xml:space="preserve">
<style type="text/css">
	.st0{display:none;}
	.st1{display:inline;fill:#071E2B;}
	.st2{fill:url(#XMLID_2_);}
	.st3{fill:url(#XMLID_3_);}
	.st4{fill:url(#XMLID_4_);}
	.st5{fill:url(#XMLID_5_);}
	.st6{fill:url(#XMLID_6_);}
	.st7{fill:url(#XMLID_7_);}
	.st8{fill:#FFFFFF;}
	.st9{fill:#00E6C9;}
</style>
<g id="Layer_2" class="st0">
	<rect id="XMLID_301_" x="2150.1" y="3.3" class="st1" width="1915" height="596.7"/>
	<rect id="XMLID_590_" x="2150.1" y="757.3" class="st1" width="1915" height="596.7"/>
	<rect id="XMLID_124_" x="1.1" y="754.1" class="st1" width="1911.1" height="596"/>
</g>
<g id="Layer_1">
	<g id="XMLID_282_">
		<g id="XMLID_865_">
			<g id="XMLID_163_">
				
					<linearGradient id="XMLID_2_" gradientUnits="userSpaceOnUse" x1="-61.1185" y1="-448.8532" x2="108.0626" y2="-379.261" gradientTransform="matrix(0.8381 0.5455 -0.5455 0.8381 197.053 692.335)">
					<stop  offset="0" style="stop-color:#3C4D60"/>
					<stop  offset="0.3602" style="stop-color:#007876"/>
					<stop  offset="1" style="stop-color:#002D40"/>
				</linearGradient>
				<path id="XMLID_164_" class="st2" d="M488.1,330.5c-11.4-44.1-59.2-67-86.9-73.3c-2.6-0.6-5.6-1.3-9.3-2.3l-32.8,50.4
					c6.2,36.7,19.9,76.1,55.2,102.6c32.6,24.5,113.3,52,113.3,52S499.5,374.5,488.1,330.5z"/>
			</g>
		</g>
		<g id="XMLID_863_">
			<g id="XMLID_143_">
				
					<linearGradient id="XMLID_3_" gradientUnits="userSpaceOnUse" x1="-102.7983" y1="-598.3904" x2="-23.4944" y2="-397.7277" gradientTransform="matrix(0.8381 0.5455 -0.5455 0.8381 197.053 692.335)">
					<stop  offset="0" style="stop-color:#3C4D60"/>
					<stop  offset="0.3602" style="stop-color:#007876"/>
					<stop  offset="1" style="stop-color:#002D40"/>
				</linearGradient>
				<path id="XMLID_144_" class="st3" d="M400.8,171.6c-44.1,11.4-71.1,61.2-77.4,88.9c-0.6,2.6-1.3,5.6-2.3,9.3l50.4,32.8
					c37.7-7.7,76.1-19.9,102.6-55.2c24.5-32.6,52-113.3,52-113.3S444.9,160.2,400.8,171.6z"/>
			</g>
		</g>
		<g id="XMLID_849_">
			<g id="XMLID_140_">
				
					<linearGradient id="XMLID_4_" gradientUnits="userSpaceOnUse" x1="-60.799" y1="-411.9219" x2="-333.9891" y2="-448.0263" gradientTransform="matrix(0.8381 0.5455 -0.5455 0.8381 197.053 692.335)">
					<stop  offset="0" style="stop-color:#3C4D60"/>
					<stop  offset="0.3602" style="stop-color:#007876"/>
					<stop  offset="1" style="stop-color:#002D40"/>
				</linearGradient>
				<path id="XMLID_141_" class="st4" d="M235.4,263.9c24.9,39.7,63.7,68.3,91.4,74.6c2.6,0.6,5.7,1.4,9.4,2.4l32.8-50.4
					c-7.7-37.7-20-76.1-55.4-102.7c-32.6-24.5-113.4-52.1-113.4-52.1S211.2,225.3,235.4,263.9z"/>
			</g>
		</g>
		<g id="XMLID_838_">
			<g id="XMLID_137_">
				
					<linearGradient id="XMLID_5_" gradientUnits="userSpaceOnUse" x1="-169.6507" y1="-368.7686" x2="92.2924" y2="-206.5562" gradientTransform="matrix(0.8381 0.5455 -0.5455 0.8381 197.053 692.335)">
					<stop  offset="0" style="stop-color:#3C4D60"/>
					<stop  offset="0.3602" style="stop-color:#007876"/>
					<stop  offset="1" style="stop-color:#002D40"/>
				</linearGradient>
				<path id="XMLID_138_" class="st5" d="M332.4,420.7c46.2-26,47.9-73.7,72.2-85.7c2.4-1.2,1.4-5.7,2.3-9.4l-50.4-32.8
					c-37.7,7.7-76.1,20-102.7,55.3c-24.5,32.6-52,113.4-52,113.4S292.8,443,332.4,420.7z"/>
			</g>
		</g>
		
			<linearGradient id="XMLID_6_" gradientUnits="userSpaceOnUse" x1="122.0089" y1="-492.5867" x2="-302.5506" y2="-340.1316" gradientTransform="matrix(0.8381 0.5455 -0.5455 0.8381 197.053 692.335)">
			<stop  offset="2.150538e-02" style="stop-color:#008377"/>
			<stop  offset="0.2312" style="stop-color:#00A898"/>
			<stop  offset="0.5161" style="stop-color:#00AD9A"/>
			<stop  offset="0.7079" style="stop-color:#00E6C9"/>
			<stop  offset="0.8441" style="stop-color:#00C3AE"/>
			<stop  offset="1" style="stop-color:#00635B"/>
		</linearGradient>
		<path id="XMLID_825_" class="st6" d="M495.2,318.4c-18.1-41.8-66.5-55-94.2-61.3c-2.4-0.5-5.2-1.2-8.8-2.3l0,0
			c-69.9-18.2-127-37.7-148.9-53.5c-22.7-16.5-34.8-38.2-42.9-65.6c6.4,27.8,2.1,87.5,32.3,141.5c22.3,39.8,66.7,55.1,94.4,61.4
			c2.4,0.5,5.4,1.3,9,2.4l0,0c69.9,18.2,126.9,37.6,148.7,53.4c22.7,16.5,34.7,38.2,42.8,65.5C521.2,432.1,518,370.8,495.2,318.4z"
			/>
		<circle id="XMLID_818_" cx="364" cy="297.8" r="9.8"/>
		
			<linearGradient id="XMLID_7_" gradientUnits="userSpaceOnUse" x1="2.7227" y1="-254.243" x2="-153.402" y2="-589.0534" gradientTransform="matrix(0.8381 0.5455 -0.5455 0.8381 197.053 692.335)">
			<stop  offset="0" style="stop-color:#008175"/>
			<stop  offset="0.371" style="stop-color:#00E6C9"/>
			<stop  offset="0.8925" style="stop-color:#00D8E0"/>
			<stop  offset="1" style="stop-color:#00A295"/>
		</linearGradient>
		<path id="XMLID_284_" class="st7" d="M404.7,334.9c0.5-2.4,0.8-4.6,2.2-8.8l0,0c18.3-70.1,37.7-127.1,53.5-149
			c16.5-22.7,38.2-34.8,65.6-42.9c-27.8,6.4-96.2,6.9-141.5,32.3c-39.8,22.3-55.2,66.8-61.5,94.4c-0.5,2.4-1,4.9-2.4,9.1l0,0
			c-18.3,70.1-37.5,126.8-53.3,148.7c-16.5,22.7-38.1,34.7-65.5,42.8c27.8-6.4,95.6-7.5,141.6-32.4
			C383.4,407.3,398.3,362.6,404.7,334.9z"/>
	</g>
	<g>
		<g>
			<path class="st8" d="M755.2,269c3-3.2,6.3-6,10.1-8.4c3.7-2.4,7.9-4.2,12.6-5.6c4.7-1.4,9.9-2,15.7-2c15.3,0,27.3,4.7,35.9,14.2
				c8.7,9.4,13,22.4,13,38.9v81.6h-19.6v-77c0-12.7-3-22.6-9.1-29.4c-6-6.9-14.4-10.3-25.1-10.3c-4.9,0-9.6,0.9-14,2.7
				c-4.4,1.8-8.3,4.4-11.6,7.9c-3.3,3.5-6,7.8-7.9,12.9c-2,5.1-2.9,10.9-2.9,17.3v76h-19.4v-77.5c0-12.4-3-22.1-9.1-28.9
				c-6-6.9-14.3-10.3-24.9-10.3c-5.3,0-10.1,1-14.5,3.1c-4.4,2-8.3,4.9-11.6,8.7c-3.3,3.7-5.9,8.1-7.8,13.1
				c-1.9,5-2.8,10.6-2.8,16.7v75.2h-19.6V255.8h19.6V278c2.2-3.2,4.6-6.4,7.3-9.4c2.6-3.1,5.6-5.7,9.1-8c3.4-2.3,7.2-4.1,11.5-5.5
				c4.2-1.4,9.2-2,14.8-2c10.7,0,19.5,2.5,26.5,7.5c7,5,12.2,11.3,15.8,18.7C749.5,275.7,752.2,272.3,755.2,269z"/>
			<path class="st8" d="M885.6,227v-21.7H908V227H885.6z M886.9,387.6V255.8h19.6v131.8H886.9z"/>
			<path class="st8" d="M953.9,387.6V201.5h19.6v186.1H953.9z"/>
			<path class="st8" d="M1021,387.6V201.5h19.6v186.1H1021z"/>
			<path class="st9" d="M1171.5,367.9c-2.3,4.7-5.5,8.7-9.6,12c-4.1,3.3-8.8,5.9-14.3,7.6c-5.4,1.8-11.3,2.7-17.6,2.7
				c-9.5,0-19-1.8-28.6-5.3c-9.5-3.6-17.8-8.2-24.7-13.8l7.4-9.9c7.1,5.4,14.6,9.6,22.4,12.6c7.8,3,15.9,4.5,24.2,4.5
				c8.8,0,16.3-2.2,22.3-6.6c6-4.4,9.1-10.4,9.1-18.1V353c0-3.7-0.9-7-2.8-9.7c-1.9-2.7-4.4-5.1-7.6-7.1c-3.2-2-6.9-3.7-11-5.1
				s-8.4-2.7-13-4.1c-5.3-1.5-10.6-3.1-15.9-4.8c-5.4-1.7-10.2-3.9-14.4-6.5c-4.3-2.6-7.7-5.9-10.3-9.8c-2.6-3.9-4-8.7-4-14.5v-0.5
				c0-5.3,1.1-10,3.2-14.4c2.1-4.3,5.1-8.1,8.8-11.3c3.7-3.2,8.2-5.7,13.5-7.5c5.3-1.8,11-2.7,17.3-2.7c7.8,0,15.8,1.3,24.1,3.9
				c8.2,2.6,15.6,6.1,22.1,10.6l-6.6,10.5c-6-3.9-12.4-7.1-19.3-9.4c-6.9-2.4-13.8-3.6-20.8-3.6c-9,0-16.2,2.2-21.5,6.5
				c-5.4,4.3-8,9.7-8,16.2v0.5c0,3.6,1,6.7,3.1,9.3c2,2.6,4.7,4.9,8,6.7s7.2,3.5,11.6,5c4.4,1.4,8.9,2.8,13.5,4.2
				c5.3,1.5,10.5,3.2,15.6,5c5.1,1.8,9.7,4.1,13.8,6.9c4.1,2.8,7.4,6.2,9.8,10.1c2.5,3.9,3.7,8.7,3.7,14.5v0.5
				C1175,358,1173.8,363.2,1171.5,367.9z"/>
			<path class="st9" d="M1334.5,348.6c-3.3,8.2-8,15.4-14,21.7c-6,6.3-13.1,11.3-21.3,14.9c-8.2,3.7-17.1,5.5-26.8,5.5
				s-18.6-1.8-26.6-5.5c-8.1-3.7-15.1-8.5-21-14.7c-6-6.1-10.6-13.3-13.9-21.4c-3.3-8.2-5-16.8-5-26v-0.5c0-9.2,1.7-17.8,5-26
				c3.3-8.2,8-15.4,14-21.7c6-6.3,13.1-11.3,21.3-14.9c8.2-3.7,17.1-5.5,26.8-5.5s18.6,1.8,26.6,5.5c8.1,3.7,15.1,8.5,21,14.7
				c5.9,6.1,10.6,13.3,13.9,21.4c3.3,8.2,5,16.8,5,26v0.5C1339.4,331.8,1337.8,340.4,1334.5,348.6z M1326.2,322.6
				c0-7.8-1.4-15.1-4.1-22c-2.7-6.9-6.5-12.8-11.4-17.9s-10.6-9.1-17.2-11.9c-6.6-2.9-13.6-4.3-21.1-4.3c-7.7,0-14.8,1.5-21.4,4.4
				c-6.6,3-12.2,6.9-16.9,11.9c-4.7,5-8.4,10.9-11,17.6c-2.6,6.8-4,14-4,21.6v0.5c0,7.8,1.4,15.1,4.1,22c2.7,6.9,6.5,12.8,11.4,17.9
				s10.6,9.1,17.2,11.9c6.6,2.9,13.6,4.3,21.1,4.3c7.7,0,14.8-1.5,21.4-4.4c6.6-3,12.2-6.9,16.9-11.9c4.7-5,8.4-10.9,11-17.6
				c2.6-6.8,4-14,4-21.6V322.6z"/>
			<path class="st9" d="M1476.8,387.6v-77.3c0-13.4-3.6-24.2-10.7-32.3c-7.1-8.1-17.3-12.1-30.6-12.1c-6.5,0-12.4,1.1-17.8,3.4
				c-5.4,2.3-10.2,5.5-14.3,9.6s-7.3,9-9.6,14.7c-2.3,5.7-3.4,11.9-3.4,18.7v75.2h-12.5v-130h12.5v24.2c4.4-7.6,10.4-14.1,17.8-19.4
				c7.5-5.3,17.2-7.9,29.1-7.9c8.2,0,15.5,1.3,21.9,4c6.5,2.6,11.9,6.3,16.4,11.1c4.5,4.8,7.9,10.4,10.2,17
				c2.3,6.5,3.4,13.7,3.4,21.5v79.5H1476.8z"/>
			<path class="st9" d="M1534.5,223.7v-17.1h15.6v17.1H1534.5z M1536,387.6v-130h12.5v130H1536z"/>
			<path class="st9" d="M1685.3,383.3c-8.4,4.9-18.6,7.4-30.5,7.4c-9.3,0-18.1-1.8-26.1-5.5c-8.1-3.7-15.1-8.5-21-14.7
				s-10.6-13.3-13.9-21.4c-3.3-8.2-5-16.8-5-26v-0.5c0-9.2,1.7-17.8,5-26c3.3-8.2,8-15.4,13.9-21.7c5.9-6.3,12.9-11.3,21-14.9
				c8.1-3.7,16.8-5.5,26.1-5.5c6.1,0,11.7,0.7,16.7,2c5,1.3,9.6,3.1,13.9,5.3c4.2,2.3,8.1,4.8,11.6,7.7c3.5,2.9,6.8,6,9.8,9.2
				l-8.9,9.2c-5.6-5.8-11.8-10.8-18.6-15c-6.8-4.2-15-6.4-24.7-6.4c-7.5,0-14.4,1.4-20.8,4.3c-6.4,2.9-11.9,6.8-16.6,11.8
				c-4.7,5-8.4,10.9-11.1,17.6c-2.7,6.8-4.1,14-4.1,21.8v0.5c0,7.8,1.4,15.1,4.2,22c2.8,6.9,6.6,12.8,11.5,17.9
				c4.8,5.1,10.5,9.1,17,11.9c6.5,2.9,13.4,4.3,20.9,4.3c9.2,0,17.4-2.1,24.6-6.2c7.2-4.2,13.6-9.3,19-15.4l8.7,7.6
				C1701.2,372.1,1693.7,378.3,1685.3,383.3z"/>
		</g>
	</g>
</g>
</svg>
